<svg id="Layer_1" data-name="Layer 1" xmlns="http://www.w3.org/2000/svg" viewBox="0 0 56.7 56.7"><defs><style>.cls-1{fill:#fff;}</style></defs><path d="M56.7,28.35a28.35,28.35,0,1,0-32.78,28V36.54h-7.2V28.35h7.2V22.1c0-7.1,4.23-11,10.71-11a43,43,0,0,1,6.34.56v7H37.4c-3.52,0-4.62,2.19-4.62,4.43v5.32h7.86l-1.25,8.19H32.78V56.36A28.37,28.37,0,0,0,56.7,28.35Z" transform="translate(0 0)"/><path class="cls-1" d="M39.39,36.54l1.25-8.19H32.78V23c0-2.24,1.1-4.43,4.62-4.43H41v-7a43,43,0,0,0-6.34-.56c-6.48,0-10.71,3.93-10.71,11v6.25h-7.2v8.19h7.2V56.36a29,29,0,0,0,8.86,0V36.54Z" transform="translate(0 0)"/></svg>