<svg id="Layer_1" data-name="Layer 1" xmlns="http://www.w3.org/2000/svg" viewBox="0 0 56.7 56.7"><defs><style>.cls-1{fill:#fff;}</style></defs><circle cx="28.35" cy="28.35" r="28.35"/><path class="cls-1" d="M28.35,13.72c4.75,0,5.31,0,7.19.1a10,10,0,0,1,3.31.61,5.62,5.62,0,0,1,2,1.34,5.51,5.51,0,0,1,1.33,2.05,9.76,9.76,0,0,1,.62,3.32c.08,1.88.1,2.44.1,7.21s0,5.33-.1,7.21a9.76,9.76,0,0,1-.62,3.32,5.51,5.51,0,0,1-1.33,2,5.62,5.62,0,0,1-2,1.34,10,10,0,0,1-3.31.61c-1.88.09-2.44.1-7.19.1s-5.32,0-7.19-.1a10,10,0,0,1-3.31-.61,5.62,5.62,0,0,1-2-1.34,5.51,5.51,0,0,1-1.33-2,9.76,9.76,0,0,1-.62-3.32c-.08-1.88-.1-2.44-.1-7.21s0-5.33.1-7.21a9.76,9.76,0,0,1,.62-3.32,5.51,5.51,0,0,1,1.33-2.05,5.62,5.62,0,0,1,2-1.34,10,10,0,0,1,3.31-.61c1.88-.09,2.44-.1,7.19-.1m0-3.22c-4.83,0-5.44,0-7.34.11a12.9,12.9,0,0,0-4.32.83,8.55,8.55,0,0,0-3.15,2.06,8.6,8.6,0,0,0-2,3.16A13.17,13.17,0,0,0,10.66,21c-.09,1.9-.11,2.51-.11,7.36s0,5.46.11,7.36A13.17,13.17,0,0,0,11.49,40a9.11,9.11,0,0,0,5.2,5.22,12.9,12.9,0,0,0,4.32.83c1.9.09,2.51.11,7.34.11s5.44,0,7.34-.11A12.9,12.9,0,0,0,40,45.26,9.11,9.11,0,0,0,45.21,40,13.17,13.17,0,0,0,46,35.71c.09-1.9.11-2.51.11-7.36s0-5.46-.11-7.36a13.17,13.17,0,0,0-.83-4.33,8.6,8.6,0,0,0-2.05-3.16A8.55,8.55,0,0,0,40,11.44a12.9,12.9,0,0,0-4.32-.83c-1.9-.09-2.51-.11-7.34-.11Z" transform="translate(0 0)"/><path class="cls-1" d="M28.35,19.18a9.17,9.17,0,1,0,9.14,9.17A9.16,9.16,0,0,0,28.35,19.18Zm0,15.12a6,6,0,1,1,5.93-5.95A5.93,5.93,0,0,1,28.35,34.3Z" transform="translate(0 0)"/><ellipse class="cls-1" cx="37.85" cy="18.82" rx="2.14" ry="2.14"/></svg>