<svg id="Layer_1" data-name="Layer 1" xmlns="http://www.w3.org/2000/svg" viewBox="0 0 56.7 56.7"><defs><style>.cls-1{fill:#fff;}</style></defs><circle cx="28.35" cy="28.35" r="28.35"/><path class="cls-1" d="M5.33,28.33,5,30.91l.29,2.58a.14.14,0,0,0,.14.15c.14,0,.14-.15.14-.15L6,30.91l-.43-2.58a.14.14,0,1,0-.28,0m1.72-1.58-.43,4.16.43,4.16a.14.14,0,0,0,.14.15.15.15,0,0,0,.15-.15l.57-4.16-.57-4.16c0-.14-.15-.14-.15-.14h0l-.14.14m5.45-.57-.29,4.73.29,5a.29.29,0,1,0,.57,0l.58-5-.43-4.73a.31.31,0,0,0-.29-.29c-.29,0-.43.14-.43.29m-3.59-.29-.43,5,.43,4.74a.31.31,0,0,0,.29.28.49.49,0,0,0,.14-.28l.43-4.74-.43-5a.31.31,0,0,0-.28-.29c0,.15-.15.15-.15.29m1.72-.14-.43,5.16.43,4.88a.29.29,0,1,0,.58,0l.43-4.88-.43-5.16a.31.31,0,0,0-.29-.29c-.14,0-.14.14-.29.29m3.73-2.58-.43,7.74.43,5a.31.31,0,0,0,.29.29c.29,0,.43-.14.43-.29l.43-5-.43-7.74a.3.3,0,0,0-.29-.29c-.28,0-.43.14-.43.29m1.87-1.73-.29,9.47.29,5a.38.38,0,0,0,.43.43.46.46,0,0,0,.43-.43l.43-5-.43-9.47a.43.43,0,0,0-.86,0m7.6-.43-.29,9.9.29,4.74a.58.58,0,0,0,1.15,0l.29-4.74-.29-10a.61.61,0,0,0-.57-.57c-.44.14-.58.28-.58.71m-5.74-.43-.28,10.33.28,4.88a.38.38,0,0,0,.43.43.38.38,0,0,0,.43-.43l.29-4.88L19,20.58a.38.38,0,0,0-.43-.43.47.47,0,0,0-.43.43m3.73,0-.28,10.33.28,4.88a.58.58,0,0,0,1.15,0l.29-4.88L23,20.58a.58.58,0,0,0-1.15,0M20,20.3l-.29,10.61L20,35.79a.43.43,0,0,0,.86,0l.29-4.88L20.82,20.3a.43.43,0,1,0-.86,0M25.7,19l-.29,11.9.29,4.74a.57.57,0,1,0,1.14,0l.29-4.74L26.84,19a.57.57,0,1,0-1.14,0m2-1-.28,12.91.28,4.74a.62.62,0,0,0,.58.57.61.61,0,0,0,.57-.57l.29-4.74L28.85,18a.61.61,0,0,0-.57-.57h-.15c-.28,0-.43.28-.43.57M30,16.71c-.43.14-.57.29-.57.72V35.65a.94.94,0,0,0,.57.71H45.92a5.74,5.74,0,1,0,0-11.47,5.16,5.16,0,0,0-2.15.43,10,10,0,0,0-10-9.18H33a11,11,0,0,0-3,.57" transform="translate(0 0)"/></svg>