<svg id="Layer_1" data-name="Layer 1" xmlns="http://www.w3.org/2000/svg" viewBox="0 0 56.7 56.7"><defs><style>.cls-1{fill:#fff;}</style></defs><path d="M28.35,0A28.35,28.35,0,1,0,56.7,28.35,28.35,28.35,0,0,0,28.35,0Zm13,40.89a1.76,1.76,0,0,1-2.43.59c-6.66-4.07-15-5-24.9-2.73a1.77,1.77,0,0,1-.79-3.45c10.8-2.47,20.06-1.41,27.54,3.16A1.77,1.77,0,0,1,41.35,40.89Zm3.47-7.72a2.21,2.21,0,0,1-3,.73c-7.62-4.68-19.24-6-28.25-3.3a2.21,2.21,0,1,1-1.28-4.23c10.29-3.13,23.09-1.62,31.84,3.76A2.21,2.21,0,0,1,44.82,33.17Zm.3-8C36,19.71,20.91,19.21,12.18,21.85a2.65,2.65,0,0,1-1.54-5.07c10-3,26.67-2.45,37.19,3.79a2.65,2.65,0,0,1-2.71,4.56Z" transform="translate(0 0)"/><path class="cls-1" d="M41.35,40.89a1.76,1.76,0,0,1-2.43.59c-6.66-4.07-15-5-24.9-2.73a1.77,1.77,0,0,1-.79-3.45c10.8-2.47,20.06-1.41,27.54,3.16A1.77,1.77,0,0,1,41.35,40.89Z" transform="translate(0 0)"/><path class="cls-1" d="M44.82,33.17a2.21,2.21,0,0,1-3,.73c-7.62-4.68-19.24-6-28.25-3.3a2.21,2.21,0,1,1-1.28-4.23c10.29-3.13,23.09-1.62,31.84,3.76A2.21,2.21,0,0,1,44.82,33.17Z" transform="translate(0 0)"/><path class="cls-1" d="M45.12,25.13C36,19.71,20.91,19.21,12.18,21.85a2.65,2.65,0,0,1-1.54-5.07c10-3,26.67-2.45,37.19,3.79a2.65,2.65,0,0,1-2.71,4.56Z" transform="translate(0 0)"/></svg>