<svg id="Layer_1" data-name="Layer 1" xmlns="http://www.w3.org/2000/svg" viewBox="0 0 56.7 56.7"><defs><style>.cls-1{fill:#fff;}</style></defs><circle cx="28.35" cy="28.35" r="28.35"/><path class="cls-1" d="M22.62,44.68C36.47,44.68,44,33.21,44,23.26c0-.33,0-.65,0-1a15.28,15.28,0,0,0,3.75-3.9,14.85,14.85,0,0,1-4.32,1.18,7.49,7.49,0,0,0,3.31-4.16A15.11,15.11,0,0,1,42,17.24,7.54,7.54,0,0,0,29.15,24.1a21.36,21.36,0,0,1-15.51-7.86,7.45,7.45,0,0,0-1,3.78A7.54,7.54,0,0,0,16,26.29a7.4,7.4,0,0,1-3.41-.95v.1a7.52,7.52,0,0,0,6,7.38,7.57,7.57,0,0,1-2,.27A7.25,7.25,0,0,1,15.2,33a7.52,7.52,0,0,0,7,5.23,15.1,15.1,0,0,1-9.35,3.22,15.27,15.27,0,0,1-1.8-.1,21.36,21.36,0,0,0,11.54,3.38" transform="translate(0 0)"/></svg>