<svg id="Layer_1" data-name="Layer 1" xmlns="http://www.w3.org/2000/svg" viewBox="0 0 56.7 56.7"><defs><style>.cls-1{fill:#fff;}</style></defs><circle cx="28.35" cy="28.35" r="28.35"/><path class="cls-1" d="M46.46,19.25a4.73,4.73,0,0,0-3.34-3.34c-2.95-.79-14.77-.79-14.77-.79s-11.82,0-14.77.79a4.73,4.73,0,0,0-3.34,3.34c-.79,2.95-.79,9.1-.79,9.1s0,6.15.79,9.1a4.73,4.73,0,0,0,3.34,3.34c3,.79,14.77.79,14.77.79s11.82,0,14.77-.79a4.73,4.73,0,0,0,3.34-3.34c.79-3,.79-9.1.79-9.1S47.25,22.2,46.46,19.25ZM24.57,34V22.68l9.82,5.67Z" transform="translate(0 0)"/></svg>