<svg id="Layer_1" data-name="Layer 1" xmlns="http://www.w3.org/2000/svg" viewBox="0 0 56.69 56.69"><defs><style>.cls-1{fill:#fff;}</style></defs><path class="cls-1" d="M36.46,32.3a5.64,5.64,0,0,0-3.38,1.16,3.85,3.85,0,0,0-1.67,3.06,5.53,5.53,0,0,0,1,3.33,3.34,3.34,0,0,0,2.81,1.72,4.46,4.46,0,0,0,3.59-1.85A6.23,6.23,0,0,0,40,35.88a3.47,3.47,0,0,0-1.2-2.36A3.32,3.32,0,0,0,36.46,32.3Z"/><path class="cls-1" d="M28.34,0A28.35,28.35,0,1,0,56.69,28.35,28.34,28.34,0,0,0,28.34,0Zm14,42A7.13,7.13,0,0,1,36.46,45a8,8,0,0,1-5.56-2.18,7.32,7.32,0,0,1-2.3-5.56v-.57H26l-3.07,7.48H16.65L23,27.64l-1.53.13a3.35,3.35,0,0,1-.71.06H20.3a7.76,7.76,0,0,1-6-2.42,9.32,9.32,0,0,1-2-6.2,6.53,6.53,0,0,1,3.13-5.69,11.56,11.56,0,0,1,6.45-1.78,9,9,0,0,1,6,2.23,7.51,7.51,0,0,1,2.68,5.75,26.53,26.53,0,0,1-1.46,6.84l-1.66,5-.45,1.28H28.6l.7-1c1.67-2.26,4.37-3.39,8.12-3.39a6.7,6.7,0,0,1,4.91,2.11,6.8,6.8,0,0,1,2.11,5A10.26,10.26,0,0,1,42.33,42Z"/><path class="cls-1" d="M21.25,15a4,4,0,0,0-1.72.39,5.68,5.68,0,0,0-1.53,1,4.83,4.83,0,0,0-1.12,1.47,3.75,3.75,0,0,0-.41,1.72,5.06,5.06,0,0,0,.34,1.85,5.37,5.37,0,0,0,1,1.6,5.2,5.2,0,0,0,1.41,1.15,3.37,3.37,0,0,0,1.69.45,4.78,4.78,0,0,0,3.64-1.92,5.89,5.89,0,0,0,1.53-4A3.21,3.21,0,0,0,24.51,16,5.32,5.32,0,0,0,21.25,15Z"/></svg>