<?xml version="1.0" encoding="utf-8"?>
<!-- Generator: Adobe Illustrator 25.4.1, SVG Export Plug-In . SVG Version: 6.00 Build 0)  -->
<svg version="1.1" id="Layer_1" xmlns="http://www.w3.org/2000/svg" xmlns:xlink="http://www.w3.org/1999/xlink" x="0px" y="0px"
	 viewBox="0 0 56.7 56.7" style="enable-background:new 0 0 56.7 56.7;" xml:space="preserve">
<path d="M36.5,32.3c-1.2,0-2.4,0.4-3.4,1.2c-1,0.7-1.6,1.8-1.7,3.1c0,1.2,0.3,2.4,1,3.3c0.6,1,1.6,1.7,2.8,1.7
	c1.4,0,2.8-0.7,3.6-1.8c0.8-1.1,1.2-2.5,1.2-3.8c-0.1-0.9-0.5-1.8-1.2-2.4C38.2,32.8,37.4,32.4,36.5,32.3z"/>
<path d="M28.3,0C12.7,0,0,12.7,0,28.3s12.7,28.4,28.4,28.4S56.7,44,56.7,28.3l0,0C56.7,12.7,44,0,28.3,0C28.4,0,28.3,0,28.3,0z
	 M42.3,42c-1.4,1.9-3.5,3-5.9,3c-2.1,0-4.1-0.8-5.6-2.2c-1.5-1.4-2.4-3.5-2.3-5.6v-0.6H26l-3.1,7.5h-6.3L23,27.6l-1.5,0.1
	c-0.2,0-0.5,0.1-0.7,0.1h-0.5c-2.3,0.1-4.4-0.8-6-2.4c-1.4-1.8-2.1-4-2-6.2c0-2.3,1.2-4.5,3.1-5.7c1.9-1.2,4.2-1.8,6.4-1.8
	c2.2,0,4.3,0.8,6,2.2c1.7,1.4,2.7,3.5,2.7,5.7c-0.2,2.3-0.7,4.6-1.5,6.8l-1.7,5L27,32.8h1.6l0.7-1c1.7-2.3,4.4-3.4,8.1-3.4
	c1.9,0,3.6,0.8,4.9,2.1c1.4,1.3,2.1,3.1,2.1,5C44.5,37.9,43.7,40.2,42.3,42L42.3,42z"/>
<path d="M21.2,15c-0.6,0-1.2,0.1-1.7,0.4c-0.6,0.2-1.1,0.6-1.5,1c-0.5,0.4-0.8,0.9-1.1,1.5c-0.3,0.5-0.4,1.1-0.4,1.7
	c0,0.6,0.1,1.3,0.3,1.9c0.2,0.6,0.6,1.1,1,1.6c0.4,0.5,0.9,0.9,1.4,1.1c0.5,0.3,1.1,0.5,1.7,0.5c1.4-0.1,2.8-0.8,3.6-1.9
	c1-1.1,1.5-2.5,1.5-4c0-1.1-0.6-2.1-1.6-2.7C23.6,15.3,22.4,15,21.2,15z"/>
</svg>
